<svg width="46" height="33" viewBox="0 0 46 33" fill="none" xmlns="http://www.w3.org/2000/svg">
<path d="M14.2624 16.3423C18.8758 16.3423 22.3561 12.8683 22.3561 8.26332C22.3561 3.65833 18.8758 0.184387 14.2624 0.184387C9.64909 0.184387 6.16884 3.65833 6.16884 8.26332C6.16884 12.8683 9.64909 16.3423 14.2624 16.3423ZM16.5749 18.5305H11.95C5.57454 18.5305 0.387695 23.7079 0.387695 30.0718V32.3801H28.1372V30.0718C28.1372 23.7079 22.9504 18.5305 16.5749 18.5305ZM42.6918 7.66317L32.7482 17.5703L29.7605 14.588L26.4907 17.8519L32.7482 24.0934L45.957 10.9317L42.6918 7.66317Z" fill="white"/>
</svg>
