<svg width="46" height="33" viewBox="0 0 46 33" fill="none" xmlns="http://www.w3.org/2000/svg">
<path d="M6.08386 8.20875C6.08386 12.7827 9.51295 16.2332 14.0585 16.2332C18.604 16.2332 22.0331 12.7827 22.0331 8.20875C22.0331 3.63483 18.604 0.184326 14.0585 0.184326C9.51295 0.184326 6.08386 3.63483 6.08386 8.20875ZM39.1216 6.94318H34.5647V13.8213H27.7293V18.4066H34.5647V25.2847H39.1216V18.4066H45.957V13.8213H39.1216V6.94318ZM4.94463 32.1628H27.7293V29.8701C27.7293 23.5491 22.6187 18.4066 16.337 18.4066H11.78C5.49829 18.4066 0.387695 23.5491 0.387695 29.8701V32.1628H4.94463Z" fill="white"/>
</svg>
