<svg width="46" height="33" viewBox="0 0 46 33" fill="none" xmlns="http://www.w3.org/2000/svg">
<path d="M30.0077 13.8894H45.957V18.4577H30.0077V13.8894ZM32.2862 23.0261H45.957V27.5944H32.2862V23.0261ZM27.7293 4.75268H45.957V9.32103H27.7293V4.75268ZM4.94463 32.1628H27.7293V29.8786C27.7293 23.5811 22.6187 18.4577 16.337 18.4577H11.78C5.49829 18.4577 0.387695 23.5811 0.387695 29.8786V32.1628H4.94463ZM14.0585 16.1736C18.604 16.1736 22.0331 12.7359 22.0331 8.17894C22.0331 3.62201 18.604 0.184326 14.0585 0.184326C9.51295 0.184326 6.08386 3.62201 6.08386 8.17894C6.08386 12.7359 9.51295 16.1736 14.0585 16.1736Z" fill="white"/>
</svg>
